<?xml version="1.0" encoding="utf-8"?>
<!-- Generator: Adobe Illustrator 16.0.0, SVG Export Plug-In . SVG Version: 6.00 Build 0)  -->
<!DOCTYPE svg PUBLIC "-//W3C//DTD SVG 1.1//EN" "http://www.w3.org/Graphics/SVG/1.1/DTD/svg11.dtd">
<svg version="1.1" id="Capa_1" xmlns="http://www.w3.org/2000/svg" xmlns:xlink="http://www.w3.org/1999/xlink" x="0px" y="0px"
	 width="1185.5px" height="207.977px" viewBox="0 20.977 1185.5 207.977" enable-background="new 0 20.977 1185.5 207.977"
	 xml:space="preserve">
<g>
	<rect x="348.5" y="51.5" fill="#FFFFE1" stroke="#000000" stroke-miterlimit="10" width="32" height="18"/>
	<rect x="392.5" y="51.5" fill="#FFFFE1" stroke="#000000" stroke-miterlimit="10" width="32" height="18"/>
</g>
<g>
	<rect x="348.5" y="79.5" fill="#DDD8C3" stroke="#000000" stroke-miterlimit="10" width="32" height="18"/>
	<rect x="392.5" y="79.5" fill="#DDD8C3" stroke="#000000" stroke-miterlimit="10" width="32" height="18"/>
</g>
<g>
	<rect x="348.5" y="107.5" fill="#DEE5FF" stroke="#000000" stroke-miterlimit="10" width="32" height="18"/>
	<rect x="392.5" y="107.5" fill="#DEE5FF" stroke="#000000" stroke-miterlimit="10" width="32" height="18"/>
</g>
<g>
	<rect x="348.5" y="134.5" fill="#999DAA" stroke="#000000" stroke-miterlimit="10" width="32" height="18"/>
	<rect x="392.5" y="134.5" fill="#999DAA" stroke="#000000" stroke-miterlimit="10" width="32" height="18"/>
</g>
<g>
	<rect x="348.5" y="162.5" fill="#CAFFDF" stroke="#000000" stroke-miterlimit="10" width="32" height="18"/>
	<rect x="392.5" y="162.5" fill="#CAFFDF" stroke="#000000" stroke-miterlimit="10" width="32" height="18"/>
</g>
<g>
	<rect x="348.5" y="190.5" fill="#4199A5" stroke="#000000" stroke-miterlimit="10" width="32" height="18"/>
	<rect x="392.5" y="190.5" fill="#4199A5" stroke="#000000" stroke-miterlimit="10" width="32" height="18"/>
</g>
<text transform="matrix(1 0 0 1 55.6116 42.0981)" font-family="'MyriadPro-Bold'" font-size="12" letter-spacing="1">AREAS DEL CONOCIMIENTO</text>
<text transform="matrix(1 0 0 1 334.2747 42.0981)" font-family="'MyriadPro-Bold'" font-size="12" letter-spacing="1">CREDITOS ::  %</text>
<text transform="matrix(1 0 0 1 716.2639 166.9233)" font-family="'MyriadPro-Bold'" font-size="10" letter-spacing="1">PRE-REQUISITO</text>
<text transform="matrix(1 0 0 1 490.2756 44.0981)" font-family="'MyriadPro-Bold'" font-size="12" letter-spacing="1">TIPO DE ASIGNATURAS</text>
<g>
	<rect x="35.5" y="51.5" fill="#FFFFE1" stroke="#000000" stroke-miterlimit="10" width="233" height="18"/>
	<text transform="matrix(1 0 0 1 44.6277 64.5962)" font-family="'MyriadPro-Regular'" font-size="12" letter-spacing="1">CIENCIAS BASICAS</text>
</g>
<g>
	<rect x="35.5" y="79.5" fill="#DDD8C3" stroke="#000000" stroke-miterlimit="10" width="233" height="18"/>
	<text transform="matrix(1 0 0 1 44.6277 92.4175)" font-family="'MyriadPro-Regular'" font-size="12" letter-spacing="1">CIENCIAS DE LA INGENIERIA</text>
</g>
<g>
	<rect x="35.5" y="107.5" fill="#DEE5FF" stroke="#000000" stroke-miterlimit="10" width="233" height="18"/>
	<text transform="matrix(1 0 0 1 44.6277 120.2554)" font-family="'MyriadPro-Regular'" font-size="12" letter-spacing="1">INGENIERIA APLICADA</text>
</g>
<g>
	<rect x="35.5" y="134.5" fill="#999DAA" stroke="#000000" stroke-miterlimit="10" width="233" height="18"/>
	<text transform="matrix(1 0 0 1 44.6277 147.0942)" font-family="'MyriadPro-Regular'" font-size="12" letter-spacing="1">ECONOMICO-ADMINISTRATIVA</text>
</g>
<g>
	<rect x="35.5" y="162.5" fill="#CAFFDF" stroke="#000000" stroke-miterlimit="10" width="233" height="18"/>
	<text transform="matrix(1 0 0 1 44.6277 176.3979)" font-family="'MyriadPro-Regular'" font-size="12" letter-spacing="1">SOCIO-HUMANISTICAS</text>
</g>
<g>
	<rect x="35.5" y="190.5" fill="#4199A5" stroke="#000000" stroke-miterlimit="10" width="233" height="18"/>
	<text transform="matrix(1 0 0 1 44.6277 202.7163)" font-family="'MyriadPro-Regular'" font-size="12" letter-spacing="1">COMPLEMENTARIAS</text>
</g>
<linearGradient id="SVGID_1_" gradientUnits="userSpaceOnUse" x1="766.0002" y1="934.9829" x2="836.0188" y2="934.9829" gradientTransform="matrix(1 0 0 1 47.5 -770.5)">
	<stop  offset="0" style="stop-color:#FFFFFF"/>
	<stop  offset="1" style="stop-color:#000000;stop-opacity:0.7"/>
</linearGradient>
<polygon fill="url(#SVGID_1_)" points="883.519,164.489 878.027,158.69 878.027,161.927 813.5,161.927 813.5,166.593 
	878.027,166.593 878.027,170.276 "/>
<g>
	<rect x="715" y="29" fill="#CECECE" width="175" height="112"/>
	<rect x="714.712" y="81.136" fill="#9CB5A8" width="95.304" height="22"/>
	<rect x="810" y="81" fill="#9CFFFF" width="79.728" height="22"/>
	<rect x="715" y="103" fill="#666600" width="95" height="22"/>
	<text transform="matrix(1 0 0 1 741.6663 48.0005)" font-family="'MyriadPro-Regular'" font-size="12">Nombre de la materia</text>
	<text transform="matrix(1 0 0 1 784.3342 69.0005)" font-family="'MyriadPro-Regular'" font-size="12">codigo</text>
	<text transform="matrix(1 0 0 1 740.3342 95.3335)" font-family="'MyriadPro-Regular'" font-size="12">Creditos</text>
	<text transform="matrix(1 0 0 1 750.3342 117.3335)" font-family="'MyriadPro-Regular'" font-size="12">Tipo</text>
	<text transform="matrix(1 0 0 1 834.6663 96.0005)" font-family="'MyriadPro-Regular'" font-size="12">Horas</text>
	<text transform="matrix(1 0 0 1 815.0002 118.0005)" font-family="'MyriadPro-Regular'" font-size="12">Pre-requisito</text>
</g>
<rect x="492" y="61" fill="#9CF0F0" width="37" height="22"/>
<rect x="492" y="104" fill="#9CF0F0" width="37" height="22"/>
<rect x="492" y="147" fill="#9CF0F0" width="37" height="22"/>
<text transform="matrix(1 0 0 1 506.7424 76.6567)" font-family="'MyriadPro-Bold'" font-size="12" letter-spacing="1">T </text>
<text transform="matrix(1 0 0 1 537.2424 76.6567)" font-family="'MyriadPro-Bold'" font-size="12" letter-spacing="1">TEORICA</text>
<text transform="matrix(1 0 0 1 539.2424 118.1567)" font-family="'MyriadPro-Bold'" font-size="12" letter-spacing="1">PRACTICA</text>
<text transform="matrix(1 0 0 1 539.2424 164.1567)" font-family="'MyriadPro-Bold'" font-size="12" letter-spacing="1">TEORICO-PRACTICA </text>
<text transform="matrix(1 0 0 1 507.3752 119.2583)" font-family="'MyriadPro-Bold'" font-size="12" letter-spacing="1">P</text>
<text transform="matrix(1 0 0 1 502.5334 162.7563)" font-family="'MyriadPro-Bold'" font-size="12" letter-spacing="1">TP</text>
<g>
	<g>
		<g>
			<defs>
				<rect id="SVGID_2_" x="493" y="183.111" width="403.5" height="30.89"/>
			</defs>
			<clipPath id="SVGID_3_">
				<use xlink:href="#SVGID_2_"  overflow="visible"/>
			</clipPath>
			<g clip-path="url(#SVGID_3_)">
				
					<image overflow="visible" enable-background="new    " width="766" height="613" xlink:href="333986E4.png"  transform="matrix(0.9653 0 0 0.9653 416.7405 -275.4131)">
				</image>
			</g>
		</g>
	</g>
</g>
<rect x="903.5" y="28.977" fill="#D6D6D6" width="273" height="193"/>
<g>
	<rect x="903.7" y="28.977" fill="none" stroke="#595959" stroke-miterlimit="10" width="272" height="28.095"/>
	<rect x="903.7" y="56.292" fill="none" stroke="#595959" stroke-miterlimit="10" width="272" height="28.096"/>
	<rect x="903.7" y="83.607" fill="none" stroke="#595959" stroke-miterlimit="10" width="272" height="28.096"/>
	<rect x="903.7" y="110.923" fill="none" stroke="#595959" stroke-miterlimit="10" width="272" height="28.095"/>
	<rect x="903.7" y="138.238" fill="none" stroke="#595959" stroke-miterlimit="10" width="272" height="28.096"/>
	<rect x="903.7" y="165.881" fill="none" stroke="#595959" stroke-miterlimit="10" width="272" height="28.096"/>
	<rect x="903.7" y="193.881" fill="none" stroke="#595959" stroke-miterlimit="10" width="272" height="28.096"/>
</g>
<text transform="matrix(1 0 0 1 982.2747 46.0981)" font-family="'MyriadPro-Bold'" font-size="12" letter-spacing="1">OBSERVACIONES</text>
<text transform="matrix(1 0 0 1 917.2747 74.0981)" font-family="'MyriadPro-Bold'" font-size="12" letter-spacing="1">OCTAVO</text>
<text transform="matrix(1 0 0 1 918.2747 102.0981)" font-family="'MyriadPro-Regular'" font-size="12" letter-spacing="1">Electiva</text>
<text transform="matrix(1 0 0 1 1011.4397 96.0981)" enable-background="new    "><tspan x="0" y="0" font-family="'MyriadPro-Regular'" font-size="10" letter-spacing="1">Electiva</tspan><tspan x="2.62" y="12" font-family="'MyriadPro-Regular'" font-size="10" letter-spacing="1">Enfasis</tspan></text>
<text transform="matrix(1 0 0 1 1011.4397 122.0981)" enable-background="new    "><tspan x="0" y="0" font-family="'MyriadPro-Regular'" font-size="10" letter-spacing="1">Electiva</tspan><tspan x="2.62" y="12" font-family="'MyriadPro-Regular'" font-size="10" letter-spacing="1">Enfasis</tspan></text>
<text transform="matrix(1 0 0 1 1103.6897 95.0981)" enable-background="new    "><tspan x="0" y="0" font-family="'MyriadPro-Regular'" font-size="10" letter-spacing="1">Electiva</tspan><tspan x="2.62" y="12" font-family="'MyriadPro-Regular'" font-size="10" letter-spacing="1">Enfasis</tspan></text>
<text transform="matrix(1 0 0 1 1103.6897 122.4312)" enable-background="new    "><tspan x="0" y="0" font-family="'MyriadPro-Regular'" font-size="10" letter-spacing="1">Electiva</tspan><tspan x="2.62" y="12" font-family="'MyriadPro-Regular'" font-size="10" letter-spacing="1">Enfasis</tspan></text>
<text transform="matrix(1 0 0 1 1103.6897 149.7651)" enable-background="new    "><tspan x="0" y="0" font-family="'MyriadPro-Regular'" font-size="10" letter-spacing="1">Electiva</tspan><tspan x="2.62" y="12" font-family="'MyriadPro-Regular'" font-size="10" letter-spacing="1">Enfasis</tspan></text>
<text transform="matrix(1 0 0 1 1103.6897 177.0981)" enable-background="new    "><tspan x="0" y="0" font-family="'MyriadPro-Regular'" font-size="10" letter-spacing="1">Electiva</tspan><tspan x="2.62" y="12" font-family="'MyriadPro-Regular'" font-size="10" letter-spacing="1">Enfasis</tspan></text>
<text transform="matrix(1 0 0 1 1008.2747 73.0981)" font-family="'MyriadPro-Bold'" font-size="12" letter-spacing="1">NOVENO</text>
<text transform="matrix(1 0 0 1 1102.2747 75.0981)" font-family="'MyriadPro-Bold'" font-size="12" letter-spacing="1">DECIMO</text>
<line fill="#FFFFFF" stroke="#000000" stroke-miterlimit="10" x1="988.5" y1="55.977" x2="988.5" y2="223.977"/>
<line fill="#FFFFFF" stroke="#000000" stroke-miterlimit="10" x1="1083.5" y1="55.977" x2="1083.5" y2="223.977"/>
</svg>
